<?xml version="1.0" encoding="UTF-8"?>
<svg width="327.2px" height="327.14px" viewBox="0 0 327.2 327.14" version="1.1" xmlns="http://www.w3.org/2000/svg" xmlns:xlink="http://www.w3.org/1999/xlink">
    <title>logomark/primacy</title>
    <g id="logomark/primacy" stroke="none" stroke-width="1" fill="none" fill-rule="evenodd">
        <g id="Group" fill-rule="nonzero">
            <rect id="Rectangle" fill="#00913E" x="0" y="0" width="327.2" height="327.14"></rect>
            <g transform="translate(137.720000, 165.870000)" id="Shape">
                <path d="M1.89,133.6 C0.92,133.6 0.13,132.81 0.13,131.84 L0.13,1.89 C0.13,0.92 0.92,0.13 1.89,0.13 L55.03,0.13 C80.56,0.13 97.7,16.59 97.7,41.08 L97.7,43.75 C97.7,67.86 80.15,84.7 55.03,84.7 L27.11,84.7 C26,84.7 25.1,85.6 25.1,86.71 L25.1,131.84 C25.1,132.81 24.31,133.6 23.34,133.6 L1.9,133.6 L1.89,133.6 Z M27.11,22.8 C26,22.8 25.1,23.7 25.1,24.81 L25.1,60 C25.1,61.11 26,62.01 27.11,62.01 L52.54,62.01 C64.8,62.01 72.73,54.69 72.73,43.35 L72.73,41.44 C72.73,30.11 64.81,22.79 52.54,22.79 L27.11,22.79 L27.11,22.8 Z" fill="#FFFFFF"></path>
                <path d="M55.03,0.25 C80.48,0.25 97.58,16.66 97.58,41.07 L97.58,43.74 C97.58,55.77 93.38,66.05 85.43,73.48 C77.78,80.63 66.98,84.56 55.03,84.56 L27.11,84.56 C25.93,84.56 24.97,85.52 24.97,86.7 L24.97,131.83 C24.97,132.73 24.23,133.47 23.33,133.47 L1.89,133.47 C0.99,133.47 0.25,132.73 0.25,131.83 L0.25,1.89 C0.25,0.99 0.99,0.25 1.89,0.25 L55.03,0.25 M27.11,62.15 L52.54,62.15 C64.88,62.15 72.85,54.78 72.85,43.37 L72.85,41.46 C72.85,30.05 64.88,22.68 52.54,22.68 L27.11,22.68 C25.93,22.68 24.97,23.64 24.97,24.82 L24.97,60.01 C24.97,61.19 25.93,62.15 27.11,62.15 M55.03,-2.84217094e-14 L1.89,-2.84217094e-14 C0.85,-2.84217094e-14 0,0.85 0,1.89 L0,131.84 C0,132.88 0.85,133.73 1.89,133.73 L23.33,133.73 C24.37,133.73 25.22,132.88 25.22,131.84 L25.22,86.71 C25.22,85.67 26.07,84.82 27.11,84.82 L55.03,84.82 C79.49,84.82 97.83,68.77 97.83,43.75 L97.83,41.08 C97.83,16.05 80.25,0.01 55.03,0.01 L55.03,0.01 L55.03,-2.84217094e-14 Z M27.11,61.9 C26.07,61.9 25.22,61.05 25.22,60.01 L25.22,24.82 C25.22,23.78 26.07,22.93 27.11,22.93 L52.54,22.93 C64.58,22.93 72.6,30 72.6,41.46 L72.6,43.37 C72.6,54.83 64.38,61.9 52.54,61.9 L27.11,61.9 L27.11,61.9 Z" fill="#BBBBBB"></path>
            </g>
        </g>
        <polygon id="Path" fill="#95E012" fill-rule="nonzero" points="199.49 299.37 199.49 274.23 299.45 274.23 299.45 299.37"></polygon>
    </g>
</svg>